<?xml version="1.0" encoding="UTF-8"?>
<svg id="art" xmlns="http://www.w3.org/2000/svg" viewBox="0 0 48.14 56.78">
  <defs>
    <style>
      .cls-1 {
        fill: #f8b500;
      }
    </style>
  </defs>
  <g>
    <path class="cls-1" d="M43.56,5.33v38.97H4.59V5.33h38.97M45.64,3.24H2.5v43.14h43.14V3.24h0Z"/>
    <rect class="cls-1" x="11.78" y="38.54" width="24.59" height="1.36"/>
    <path class="cls-1" d="M24.29,9.43c-4.59,0-8.36,3.56-8.69,8.06-3.97.81-6.88,4.2-6.88,8.14,0,4.59,3.91,8.33,8.72,8.33.74,0,1.48-.09,2.19-.27,1.25.67,2.48.85,3.41.85.06,0,.11,0,.16,0v2.29h1.72v-2.29s.09,0,.13,0c.95,0,2.2-.18,3.47-.87.04-.02.08-.05.12-.07.05.02.1.04.16.06.76.2,1.55.31,2.35.31,4.81,0,8.72-3.74,8.72-8.33,0-3.94-2.91-7.32-6.88-8.14-.34-4.5-4.11-8.06-8.69-8.06h0ZM17.43,32.24c-3.86,0-7-2.96-7-6.61,0-3.31,2.62-6.13,6.1-6.55.44-.05.76-.43.76-.87,0-.02,0-.05,0-.07,0-3.86,3.14-7,7-7s7,3.14,7,6.97c0,.03,0,.07,0,.1,0,.44.33.8.76.85,3.48.42,6.1,3.24,6.1,6.55,0,3.64-3.14,6.61-7,6.61-.26,0-.51-.02-.77-.04.91-1.01,1.35-2.06,1.52-2.59.02-.07.02-.15-.02-.21-.04-.06-.1-.11-.17-.13-.32-.07-.85-.15-1.5-.15-.96,0-2.19.18-3.44.87-.3.16-.58.35-.86.55.11-.5.17-1.01.18-1.53.07-2.79-1.23-4.72-1.79-5.42-.05-.06-.12-.1-.2-.1h0c-.08,0-.15.03-.2.09-.54.65-1.81,2.44-1.88,5.05-.02.64.04,1.28.17,1.91-.27-.2-.56-.39-.85-.55-1.26-.69-2.51-.87-3.47-.87-.64,0-1.15.08-1.46.15-.07.02-.14.06-.17.12-.04.06-.05.14-.02.21.18.54.61,1.61,1.54,2.64-.11,0-.21.01-.32.01h0Z"/>
  </g>
  <g>
    <path class="cls-1" d="M5.37,48.4h2.59c.57,0,.99.13,1.27.4.28.27.42.65.42,1.15s-.15.91-.46,1.2-.78.43-1.4.43h-.85v1.88h-1.57v-5.05ZM6.94,50.56h.38c.3,0,.51-.05.63-.16.12-.1.18-.24.18-.4s-.05-.29-.16-.4-.3-.17-.6-.17h-.44v1.13Z"/>
    <path class="cls-1" d="M10.5,53.45v-5.05h2.6c.48,0,.85.04,1.11.12s.46.24.62.46.23.5.23.82c0,.28-.06.52-.18.73s-.28.37-.49.49c-.13.08-.32.15-.55.2.19.06.32.12.41.19.06.04.14.13.25.27.11.13.18.24.22.31l.76,1.46h-1.76l-.83-1.54c-.11-.2-.2-.33-.28-.39-.11-.08-.24-.12-.38-.12h-.14v2.05h-1.57ZM12.07,50.45h.66c.07,0,.21-.02.41-.07.1-.02.19-.07.25-.16s.1-.18.1-.29c0-.16-.05-.29-.16-.38-.1-.09-.3-.13-.58-.13h-.69v1.03Z"/>
    <path class="cls-1" d="M15.77,50.93c0-.83.23-1.47.69-1.93.46-.46,1.1-.69,1.92-.69s1.49.23,1.94.68.68,1.08.68,1.9c0,.59-.1,1.07-.3,1.45-.2.38-.49.67-.86.88-.38.21-.84.32-1.4.32s-1.04-.09-1.42-.27c-.37-.18-.68-.47-.91-.86-.23-.39-.35-.88-.35-1.47ZM17.33,50.94c0,.51.09.88.28,1.1.19.22.45.33.77.33s.59-.11.78-.33c.18-.22.28-.61.28-1.18,0-.48-.1-.82-.29-1.04-.19-.22-.45-.33-.78-.33s-.57.11-.76.33c-.19.22-.29.59-.29,1.11Z"/>
    <path class="cls-1" d="M21.87,48.4h2.32c.46,0,.83.06,1.11.19.28.12.51.3.7.53.18.23.32.5.4.81.08.31.12.63.12.98,0,.54-.06.96-.18,1.26-.12.3-.29.55-.51.75-.22.2-.45.33-.7.4-.34.09-.65.14-.93.14h-2.32v-5.05ZM23.43,49.55v2.76h.38c.33,0,.56-.04.7-.11s.25-.2.32-.38c.08-.18.12-.47.12-.88,0-.54-.09-.9-.26-1.1-.17-.2-.46-.3-.87-.3h-.39Z"/>
    <path class="cls-1" d="M30.62,48.4h1.56v3.01c0,.3-.04.58-.14.84-.09.27-.24.5-.44.7-.2.2-.41.34-.62.42-.3.11-.67.17-1.09.17-.24,0-.51-.02-.8-.05-.29-.03-.53-.1-.73-.21-.2-.1-.37-.25-.54-.44s-.27-.38-.33-.58c-.1-.32-.14-.61-.14-.85v-3.01h1.56v3.08c0,.28.08.49.23.65.15.16.37.23.64.23s.48-.08.63-.23c.15-.15.23-.37.23-.65v-3.08Z"/>
    <path class="cls-1" d="M36.58,51.39l1.37.41c-.09.38-.24.7-.43.96-.2.26-.44.45-.74.58s-.67.2-1.12.2c-.55,0-1-.08-1.35-.24s-.65-.44-.9-.84c-.25-.4-.38-.92-.38-1.54,0-.84.22-1.48.67-1.93.44-.45,1.07-.67,1.89-.67.63,0,1.14.13,1.5.39s.63.65.81,1.19l-1.38.31c-.05-.15-.1-.27-.15-.34-.09-.12-.19-.21-.32-.28s-.27-.1-.42-.1c-.35,0-.62.14-.81.43-.14.21-.21.54-.21.99,0,.56.09.94.26,1.15.17.21.41.31.72.31s.52-.08.68-.25c.15-.17.26-.41.33-.73Z"/>
    <path class="cls-1" d="M38.35,48.4h4.74v1.25h-1.59v3.8h-1.56v-3.8h-1.59v-1.25Z"/>
  </g>
</svg>